# xmcd
#
# Track frame offsets: 
#        150
#        14189
#        32018
#        43282
#        52476
#        63143
#        74885
#        85670
#        92102
#        104164
#        126763
#        146055
#        160114
#        182728
#        197328
#        220913
#        239875
#
# Disc length: 3430 seconds
#
# Revision: 5
# Processed by: cddbd v1.5.2PL0 Copyright (c) Steve Scherf et al.
# Submitted via: ExactAudioCopy v0.95b4
#
DISCID=0f0d6411
DTITLE=Eric Clapton - Eric Clapton Volume 2
DYEAR=1996
DGENRE=Blues
TTITLE0=Draggin' My Tail
TTITLE1=Big Boss Man
TTITLE2=Snake Drive
TTITLE3=Talking About You
TTITLE4=West Coast Idea
TTITLE5=Pounds And Stomps
TTITLE6=Honey In Your Hips
TTITLE7=Choker
TTITLE8=Got Love If You Want It
TTITLE9=The First Time I Met The Blues
TTITLE10=Take It Easy Baby
TTITLE11=Pretty Girl
TTITLE12=Five Long Years
TTITLE13=Out On The Water Coast
TTITLE14=Here ' Tis
TTITLE15=Stormy Monday Blues
TTITLE16=Early In The Morning
EXTD=YEAR: 1996
EXTT0=
EXTT1=
EXTT2=
EXTT3=
EXTT4=
EXTT5=
EXTT6=
EXTT7=
EXTT8=
EXTT9=
EXTT10=
EXTT11=
EXTT12=
EXTT13=
EXTT14=
EXTT15=
EXTT16=
PLAYORDER=
